# xmcd
#
# Track frame offsets: 
#        150
#        14250
#        28395
#        40060
#        50683
#        61033
#        75450
#        90693
#        102423
#        112403
#        127290
#        140693
#
# Disc length: 2044 seconds
#
# Revision: 0
# Processed by: cddbd v1.5.1PL0 Copyright (c) Steve Scherf et al.
# Submitted via: ExactAudioCopy v0.90b4
#
DISCID=ac07fa0c
DTITLE=Del Shannon - Del Shannon Sings Hank Williams: Your Cheatin' He
DTITLE=art
DYEAR=1965
DGENRE=Country
TTITLE0=Your Cheatin' Heart
TTITLE1=Kaw-Liga
TTITLE2=I Can't Help It
TTITLE3=Honky Tonk Blues
TTITLE4=(See I Hear) That Lonesome Whistle
TTITLE5=You Win Again
TTITLE6=Ramblin' Man
TTITLE7=Hey Goodlooking
TTITLE8=Long Gone Lonesome Blues
TTITLE9=Weary Blues
TTITLE10=I'm So Lonesome I Could Cry
TTITLE11=Cold, Cold Heart
EXTD=
EXTT0=
EXTT1=
EXTT2=
EXTT3=
EXTT4=
EXTT5=
EXTT6=
EXTT7=
EXTT8=
EXTT9=
EXTT10=
EXTT11=
PLAYORDER=
